<?xml version="1.0" standalone="no"?>
<!DOCTYPE svg PUBLIC "-//W3C//DTD SVG 20010904//EN"
 "http://www.w3.org/TR/2001/REC-SVG-20010904/DTD/svg10.dtd">
<svg version="1.0" xmlns="http://www.w3.org/2000/svg"
 width="700.000000pt" height="700.000000pt" viewBox="0 0 700.000000 700.000000"
 preserveAspectRatio="xMidYMid meet">
<metadata>
Created by potrace 1.11, written by Peter Selinger 2001-2013
</metadata>
<g transform="translate(0.000000,700.000000) scale(0.100000,-0.100000)"
fill="#000000" stroke="none">
<path d="M3265 6984 c-22 -2 -85 -9 -140 -15 -1434 -150 -2633 -1183 -3000
-2584 -81 -309 -110 -538 -110 -885 0 -279 9 -388 51 -620 235 -1299 1186
-2358 2450 -2729 335 -98 608 -136 984 -136 284 1 428 14 670 61 1352 265
2431 1315 2730 2659 129 580 106 1215 -65 1780 -274 904 -924 1678 -1766 2100
-361 182 -716 290 -1129 346 -138 19 -570 34 -675 23z m625 -110 c74 -8 190
-26 257 -40 68 -13 125 -24 128 -24 3 0 5 -6 5 -12 0 -15 -763 -1658 -770
-1658 -3 0 -179 375 -392 832 -291 626 -384 834 -374 840 33 19 390 70 576 82
107 7 437 -4 570 -20z m668 -149 c75 -25 142 -48 149 -53 8 -5 -126 -302 -437
-972 -247 -531 -463 -994 -480 -1029 l-32 -64 -84 182 c-47 101 -84 191 -82
201 3 19 821 1780 826 1780 2 0 65 -20 140 -45z m-2164 -567 c182 -390 217
-475 210 -494 -21 -54 -1899 -4083 -1904 -4083 -9 -1 -116 169 -179 283 -610
1102 -547 2485 160 3531 296 438 683 799 1139 1060 75 43 337 174 350 174 3 1
104 -211 224 -471z m2522 430 c986 -458 1695 -1355 1909 -2413 22 -107 46
-282 58 -418 l5 -47 -817 2 -816 3 -442 948 -442 949 211 451 c116 249 221
476 234 505 13 28 26 52 28 52 2 0 35 -14 72 -32z m-2181 -1173 l64 -136 -931
-2000 c-914 -1961 -932 -1999 -951 -1982 -11 10 -49 55 -85 101 -60 78 -64 85
-53 110 66 151 1886 4050 1889 4047 2 -2 32 -65 67 -140z m294 -619 l162 -349
-852 -1831 c-469 -1007 -855 -1835 -859 -1839 -10 -12 -216 158 -353 292 -90
88 -117 120 -114 136 3 14 1638 3527 1830 3933 6 12 13 19 17 15 4 -5 80 -165
169 -357z m1431 -396 c172 -371 315 -678 317 -683 2 -4 -133 -6 -301 -5 l-306
3 -171 366 -170 365 141 304 c166 356 160 345 169 334 4 -5 149 -313 321 -684z
m-1112 -299 c45 -98 82 -184 82 -191 0 -14 -1557 -3361 -1570 -3374 -8 -8
-253 134 -265 155 -6 9 1655 3588 1665 3589 3 0 42 -80 88 -179z m176 -367 c9
-23 8 -24 -14 -24 -11 0 -20 2 -20 4 0 12 13 36 20 36 4 0 11 -7 14 -16z m100
-219 c30 -63 58 -124 61 -135 6 -19 1 -20 -175 -20 -212 0 -197 -20 -115 156
l54 114 61 0 60 0 54 -115z m3236 -20 l0 -135 -1262 2 -1263 3 -29 60 c-16 33
-44 93 -62 133 l-33 72 1324 0 1325 0 0 -135z m-2475 -1611 c358 -768 651
-1400 653 -1404 8 -22 -368 -177 -582 -239 -319 -94 -608 -134 -951 -135 -376
0 -696 48 -1030 154 -237 76 -499 189 -493 214 2 8 296 642 653 1410 l650
1396 225 0 225 0 650 -1396z m1088 342 c448 -963 487 -1052 476 -1073 -25 -46
-391 -367 -411 -361 -5 2 -267 557 -582 1235 -316 677 -577 1236 -581 1242 -4
8 79 11 301 9 l308 -3 489 -1049z m1407 1006 c0 -68 -27 -267 -55 -407 -85
-420 -244 -809 -482 -1178 -34 -53 -66 -97 -71 -97 -6 0 -784 1652 -810 1721
-2 5 306 9 707 9 l711 0 0 -48z"/>
</g>
</svg>
