<?xml version="1.0" encoding="UTF-8" standalone="no"?>
<svg
   width="255"
   height="289.14606"
   viewBox="0 0 254.99999 289.14606"
   version="1.1"
   xml:space="preserve"
   style="clip-rule:evenodd;fill-rule:evenodd;stroke-linejoin:round;stroke-miterlimit:2"
   id="svg38"
   sodipodi:docname="decomp-logo-only.svg"
   inkscape:version="1.4 (e7c3feb1, 2024-10-09)"
   xmlns:inkscape="http://www.inkscape.org/namespaces/inkscape"
   xmlns:sodipodi="http://sodipodi.sourceforge.net/DTD/sodipodi-0.dtd"
   xmlns="http://www.w3.org/2000/svg"
   xmlns:svg="http://www.w3.org/2000/svg"
   xmlns:serif="http://www.serif.com/"><defs
   id="defs38" /><sodipodi:namedview
   id="namedview38"
   pagecolor="#ffffff"
   bordercolor="#111111"
   borderopacity="1"
   inkscape:showpageshadow="0"
   inkscape:pageopacity="0"
   inkscape:pagecheckerboard="1"
   inkscape:deskcolor="#d1d1d1"
   inkscape:clip-to-page="false"
   inkscape:zoom="0.5"
   inkscape:cx="513"
   inkscape:cy="145"
   inkscape:window-width="1728"
   inkscape:window-height="968"
   inkscape:window-x="0"
   inkscape:window-y="38"
   inkscape:window-maximized="1"
   inkscape:current-layer="Page-31" />
    <rect
   id="Page-3"
   serif:id="Page 3"
   x="-487.513"
   y="-855.42792"
   width="2000"
   height="2000"
   style="fill:none" />
    <g
   id="Page-31"
   serif:id="Page 3"
   transform="translate(-487.51299,-855.42795)">
        <g
   id="Layer-1"
   serif:id="Layer 1">
            <g
   transform="translate(803.902,866.16)"
   id="g1">
                <path
   d="m 0,46.991 c 7.493,0 8.141,-2.867 8.141,-9.158 V 10.73 C 8.141,1.942 7.771,-0.001 0,-0.001 Z M -15.355,-9.436 H 0.463 c 17.205,0 23.034,2.775 23.034,22.478 v 23.496 c 0,12.488 -3.701,19.889 -23.034,19.889 h -15.818 z"
   style="fill-rule:nonzero"
   id="path1" />
            </g>
            <g
   transform="translate(840.527,856.725)"
   id="g2">
                <path
   d="M 0,65.862 V 0 H 31.82 V 9.99 H 15.355 V 24.421 H 31.266 V 34.41 H 15.355 V 55.872 H 31.82 v 9.99 z"
   style="fill-rule:nonzero"
   id="path2" />
            </g>
            <g
   transform="translate(923.035,882.348)"
   id="g3">
                <path
   d="m 0,14.615 v 8.695 c 0,12.304 -6.568,18.224 -19.518,18.224 -10.176,0 -19.334,-4.163 -19.334,-19.241 V -7.678 c 0,-15.078 9.158,-19.241 19.334,-19.241 11.192,0 19.518,3.33 19.518,17.576 v 7.215 h -15.355 v -9.065 c 0,-2.683 -0.833,-5.181 -4.163,-5.181 -3.146,0 -3.978,2.498 -3.978,5.181 v 37.001 c 0,2.683 0.832,5.18 3.978,5.18 3.33,0 4.163,-2.497 4.163,-5.18 l 0.092,-11.193 z"
   style="fill-rule:nonzero"
   id="path3" />
            </g>
            <g
   transform="translate(951.704,871.156)"
   id="g4">
                <path
   d="m 0,37.001 c 0,2.683 0.833,5.179 4.07,5.179 3.238,0 4.071,-2.496 4.071,-5.179 V 0 C 8.141,-2.683 7.308,-5.181 4.07,-5.181 0.833,-5.181 0,-2.683 0,0 Z m 23.496,-3.515 c 0,15.078 -9.25,19.241 -19.426,19.241 -10.175,0 -19.425,-4.163 -19.425,-19.241 V 3.515 c 0,-15.078 9.25,-19.241 19.425,-19.241 10.176,0 19.426,4.163 19.426,19.241 z"
   style="fill-rule:nonzero"
   id="path4" />
            </g>
            <g
   transform="translate(1000.72,856.725)"
   id="g5">
                <path
   d="M 0,65.862 H -12.303 V 0 h 22.571 l 6.475,46.806 h 0.185 L 23.404,0 H 45.511 V 65.862 H 31.636 V 9.62 h -0.185 l -8.88,56.242 H 9.066 L 0.186,9.62 H 0 Z"
   style="fill-rule:nonzero"
   id="path5" />
            </g>
            <g
   transform="translate(1074.81,891.598)"
   id="g6">
                <path
   d="m 0,-3.885 h 2.404 c 5.366,0 5.736,-2.96 5.736,-10.731 0,-7.77 -0.37,-10.823 -5.736,-10.823 H 0 Z M -15.356,30.989 V -34.874 H 3.422 c 12.211,0 20.074,2.775 20.074,14.153 V -8.696 C 23.496,1.202 14.708,5.55 5.642,5.55 H 0 v 25.439 z"
   style="fill-rule:nonzero"
   id="path6" />
            </g>
            <g
   transform="translate(1126.98,871.156)"
   id="g7">
                <path
   d="m 0,37.001 c 0,2.683 0.833,5.179 4.071,5.179 3.237,0 4.07,-2.496 4.07,-5.179 V 0 c 0,-2.683 -0.833,-5.181 -4.07,-5.181 C 0.833,-5.181 0,-2.683 0,0 Z m 23.497,-3.515 c 0,15.078 -9.251,19.241 -19.426,19.241 -10.175,0 -19.426,-4.163 -19.426,-19.241 V 3.515 c 0,-15.078 9.251,-19.241 19.426,-19.241 10.175,0 19.426,4.163 19.426,19.241 z"
   style="fill-rule:nonzero"
   id="path7" />
            </g>
            <g
   transform="translate(1187.28,898.999)"
   id="g8">
                <path
   d="m 0,-18.686 v -9.25 c 0,-3.238 -1.018,-5.088 -4.07,-5.088 -3.33,0 -4.071,1.85 -4.071,5.088 0,11.1 23.496,14.337 23.496,34.688 0,12.395 -6.66,18.131 -19.518,18.131 -9.805,0 -19.333,-3.33 -19.333,-14.709 V -2.036 H -8.141 V 9.342 c 0,3.886 1.203,4.995 4.071,4.995 2.497,0 4.07,-1.109 4.07,-4.995 0,-14.893 -23.496,-15.17 -23.496,-36.446 0,-11.933 7.863,-16.465 19.703,-16.465 10.36,0 19.148,3.514 19.148,14.523 v 10.36 z"
   style="fill-rule:nonzero"
   id="path8" />
            </g>
            <g
   transform="translate(0,-220.688)"
   id="g9">
                <rect
   x="1215.67"
   y="1077.41"
   width="15.355"
   height="65.862"
   id="rect8" />
            </g>
            <g
   transform="translate(1243.33,912.596)"
   id="g10">
                <path
   d="m 0,-45.881 v -9.991 h 36.816 v 9.991 H 26.086 V 9.991 H 10.731 v -55.872 z"
   style="fill-rule:nonzero"
   id="path9" />
            </g>
            <g
   transform="translate(0,-220.688)"
   id="g11">
                <rect
   x="1292.4399"
   y="1077.41"
   width="15.355"
   height="65.862"
   id="rect10" />
            </g>
            <g
   transform="translate(1336.19,871.156)"
   id="g12">
                <path
   d="m 0,37.001 c 0,2.683 0.832,5.179 4.071,5.179 3.238,0 4.07,-2.496 4.07,-5.179 V 0 c 0,-2.683 -0.832,-5.181 -4.07,-5.181 C 0.832,-5.181 0,-2.683 0,0 Z m 23.496,-3.515 c 0,15.078 -9.25,19.241 -19.425,19.241 -10.176,0 -19.426,-4.163 -19.426,-19.241 V 3.515 c 0,-15.078 9.25,-19.241 19.426,-19.241 10.175,0 19.425,4.163 19.425,19.241 z"
   style="fill-rule:nonzero"
   id="path11" />
            </g>
            <g
   transform="translate(1372.45,922.587)"
   id="g13">
                <path
   d="m 0,-65.862 h 21.276 l 9.805,47.917 h 0.185 V -65.862 H 43.292 V 0 H 23.588 L 12.211,-55.039 H 12.025 V 0 H 0 Z"
   style="fill-rule:nonzero"
   id="path12" />
            </g>
            <g
   transform="translate(1450.14,882.903)"
   id="g14">
                <path
   d="M 0,13.505 -2.683,-15.818 H -2.867 L -5.55,13.505 Z m 9.621,-39.684 8.51,65.863 H 2.867 L 1.11,23.496 h -8.325 l -2.497,16.188 h -12.951 l 11.193,-65.863 z"
   style="fill-rule:nonzero"
   id="path13" />
            </g>
            <g
   transform="translate(1480.48,856.725)"
   id="g15">
                <path
   d="M 0,65.862 V 0 h 15.355 v 55.872 h 16.651 v 9.99 z"
   style="fill-rule:nonzero"
   id="path14" />
            </g>
            <g
   transform="translate(812.043,1009.99)"
   id="g16">
                <path
   d="m 0,-18.685 v -9.251 c 0,-3.237 -1.018,-5.088 -4.07,-5.088 -3.33,0 -4.071,1.851 -4.071,5.088 0,11.101 23.496,14.339 23.496,34.689 0,12.395 -6.66,18.131 -19.518,18.131 -9.805,0 -19.333,-3.331 -19.333,-14.709 V -2.035 H -8.141 V 9.343 c 0,3.885 1.203,4.994 4.071,4.994 2.497,0 4.07,-1.109 4.07,-4.994 0,-14.893 -23.496,-15.171 -23.496,-36.446 0,-11.933 7.863,-16.466 19.703,-16.466 10.36,0 19.148,3.515 19.148,14.524 v 10.36 z"
   style="fill-rule:nonzero"
   id="path15" />
            </g>
            <g
   transform="translate(840.527,967.715)"
   id="g17">
                <path
   d="M 0,65.863 V 0 H 31.82 V 9.991 H 15.355 v 14.431 h 15.911 v 9.99 H 15.355 V 55.873 H 31.82 v 9.99 z"
   style="fill-rule:nonzero"
   id="path16" />
            </g>
            <g
   transform="translate(896.394,967.715)"
   id="g18">
                <path
   d="M 0,65.863 H -12.303 V 0 h 22.571 l 6.475,46.807 h 0.185 L 23.403,0 H 45.511 V 65.863 H 31.636 V 9.621 h -0.185 l -8.88,56.242 H 9.065 L 0.185,9.621 H 0 Z"
   style="fill-rule:nonzero"
   id="path17" />
            </g>
            <g
   transform="translate(976.771,993.894)"
   id="g19">
                <path
   d="M 0,13.505 -2.683,-15.817 H -2.868 L -5.55,13.505 Z m 9.621,-39.684 8.51,65.863 H 2.868 L 1.11,23.496 h -8.325 l -2.497,16.188 h -12.951 l 11.193,-65.863 z"
   style="fill-rule:nonzero"
   id="path18" />
            </g>
            <g
   transform="translate(1006.74,1033.58)"
   id="g20">
                <path
   d="m 0,-65.863 h 21.276 l 9.805,47.917 h 0.186 V -65.863 H 43.292 V 0 H 23.589 L 12.211,-55.039 H 12.026 V 0 H 0 Z"
   style="fill-rule:nonzero"
   id="path19" />
            </g>
            <g
   transform="translate(1062.05,1023.59)"
   id="g21">
                <path
   d="m 0,-45.881 v -9.991 h 36.816 v 9.991 H 26.086 V 9.991 H 10.731 v -55.872 z"
   style="fill-rule:nonzero"
   id="path20" />
            </g>
            <g
   transform="translate(0,1.293)"
   id="g22">
                <rect
   x="1111.16"
   y="966.422"
   width="15.355"
   height="65.862999"
   id="rect21" />
            </g>
            <g
   transform="translate(1178.41,993.34)"
   id="g23">
                <path
   d="m 0,14.615 v 8.695 c 0,12.303 -6.568,18.224 -19.518,18.224 -10.176,0 -19.334,-4.163 -19.334,-19.241 V -7.678 c 0,-15.078 9.158,-19.241 19.334,-19.241 11.192,0 19.518,3.33 19.518,17.576 v 7.214 h -15.356 v -9.064 c 0,-2.683 -0.832,-5.181 -4.162,-5.181 -3.146,0 -3.978,2.498 -3.978,5.181 v 37.001 c 0,2.683 0.832,5.179 3.978,5.179 3.33,0 4.162,-2.496 4.162,-5.179 l 0.093,-11.193 z"
   style="fill-rule:nonzero"
   id="path22" />
            </g>
            <g
   transform="translate(1215.22,1009.99)"
   id="g24">
                <path
   d="m 0,-18.685 v -9.251 c 0,-3.237 -1.018,-5.088 -4.071,-5.088 -3.329,0 -4.07,1.851 -4.07,5.088 0,11.101 23.496,14.339 23.496,34.689 0,12.395 -6.66,18.131 -19.518,18.131 -9.805,0 -19.334,-3.331 -19.334,-14.709 V -2.035 H -8.141 V 9.343 c 0,3.885 1.203,4.994 4.07,4.994 C -1.573,14.337 0,13.228 0,9.343 0,-5.55 -23.497,-5.828 -23.497,-27.103 c 0,-11.933 7.863,-16.466 19.704,-16.466 10.36,0 19.148,3.515 19.148,14.524 v 10.36 z"
   style="fill-rule:nonzero"
   id="path23" />
            </g>
            <g
   transform="translate(0,223.278)"
   id="g25">
                <rect
   x="788.26898"
   y="855.42999"
   width="15.355"
   height="65.862"
   id="rect24" />
            </g>
            <g
   transform="translate(816.109,1144.57)"
   id="g26">
                <path
   d="m 0,-65.862 h 21.276 l 9.805,47.917 h 0.186 V -65.862 H 43.292 V 0 H 23.589 L 12.21,-55.039 H 12.026 V 0 H 0 Z"
   style="fill-rule:nonzero"
   id="path25" />
            </g>
            <g
   transform="translate(0,223.278)"
   id="g27">
                <rect
   x="871.883"
   y="855.42999"
   width="15.355"
   height="65.862"
   id="rect26" />
            </g>
            <g
   transform="translate(899.537,1134.58)"
   id="g28">
                <path
   d="m 0,-45.88 v -9.991 h 36.817 v 9.991 H 26.086 V 9.991 H 10.73 V -45.88 Z"
   style="fill-rule:nonzero"
   id="path27" />
            </g>
            <g
   transform="translate(0,223.278)"
   id="g29">
                <rect
   x="948.651"
   y="855.42999"
   width="15.355"
   height="65.862"
   id="rect28" />
            </g>
            <g
   transform="translate(998.692,1104.89)"
   id="g30">
                <path
   d="M 0,13.505 -2.683,-15.817 H -2.868 L -5.55,13.505 Z M 9.621,-26.179 18.13,39.684 H 2.868 L 1.11,23.496 h -8.325 l -2.497,16.188 h -12.951 l 11.192,-65.863 z"
   style="fill-rule:nonzero"
   id="path29" />
            </g>
            <g
   transform="translate(1021.63,1134.58)"
   id="g31">
                <path
   d="m 0,-45.88 v -9.991 h 36.817 v 9.991 H 26.086 V 9.991 H 10.731 V -45.88 Z"
   style="fill-rule:nonzero"
   id="path30" />
            </g>
            <g
   transform="translate(0,223.278)"
   id="g32">
                <rect
   x="1070.74"
   y="855.42999"
   width="15.355"
   height="65.862"
   id="rect31" />
            </g>
            <g
   transform="translate(1097.84,1144.57)"
   id="g33">
                <path
   d="m 0,-65.862 h 16.466 l 3.7,50.784 h 0.185 l 6.66,-50.784 H 41.349 L 30.341,0 H 10.175 Z"
   style="fill-rule:nonzero"
   id="path32" />
            </g>
            <g
   transform="translate(1151.12,1078.71)"
   id="g34">
                <path
   d="M 0,65.862 V 0 H 31.82 V 9.991 H 15.355 v 14.43 h 15.911 v 9.99 H 15.355 V 55.872 H 31.82 v 9.99 z"
   style="fill-rule:nonzero"
   id="path33" />
            </g>
            <g
   transform="matrix(-1,0,0,1,1230.14,211.189)"
   id="g35">
                <rect
   x="487.51501"
   y="855.42999"
   width="255.112"
   height="77.950996"
   style="fill:#05aee5"
   id="rect34" />
            </g>
            <g
   transform="translate(678.845,990.274)"
   id="g36">
                <path
   d="m 0,54.899 c -21.111,0 -32.227,-8.505 -41.158,-15.338 -7.132,-5.457 -11.843,-9.062 -22.624,-9.062 -10.779,0 -15.489,3.604 -22.619,9.06 -8.932,6.835 -20.046,15.34 -41.155,15.34 -21.109,0 -32.223,-8.505 -41.153,-15.34 -7.132,-5.455 -11.842,-9.06 -22.622,-9.06 V 0 c 21.11,0 32.225,8.504 41.156,15.338 7.13,5.457 11.841,9.061 22.619,9.061 10.779,0 15.489,-3.604 22.619,-9.061 C -96.005,8.504 -84.891,0 -63.782,0 c 21.11,0 32.226,8.504 41.157,15.337 7.132,5.457 11.844,9.062 22.625,9.062 10.781,0 15.492,-3.605 22.624,-9.062 C 31.556,8.504 42.671,0 63.781,0 V 30.499 C 53,30.499 48.29,34.104 41.157,39.561 32.226,46.394 21.11,54.899 0,54.899"
   style="fill:#ffae1f;fill-rule:nonzero"
   id="path35" />
            </g>
            <g
   transform="matrix(-1,0,0,1,1230.14,-258.642)"
   id="g37">
                <rect
   x="487.51401"
   y="1114.0699"
   width="255.112"
   height="30.5"
   style="fill:#ee4e4e"
   id="rect36" />
            </g>
            <g
   transform="translate(700.104,944.426)"
   id="g38">
                <path
   d="m 0,-10.765 -42.525,-24.4 -42.517,24.4 -42.516,-24.401 -42.515,24.4 -42.013,-24.11 V 0.288 l 42.013,24.113 42.515,-24.4 42.516,24.398 42.519,-24.4 L 0,24.399 42.307,0.124 v -35.165 z"
   style="fill:#fe8333;fill-rule:nonzero"
   id="path37" />
            </g>
        </g>
    </g>
</svg>
